<svg fill="none" xmlns="http://www.w3.org/2000/svg" viewBox="6.21 6.2 28.6 28.6"> <mask id="path-1-inside-1_55_151" fill="white"> <path d="M19.5453 8.92549C19.8184 7.95255 21.1977 7.95255 21.4708 8.92549L21.9746 10.7198C23.1058 14.7493 26.2548 17.8983 30.2844 19.0296L32.0787 19.5333C33.0516 19.8065 33.0516 21.1857 32.0787 21.4589L30.2844 21.9626C26.2548 23.0939 23.1058 26.2429 21.9746 30.2724L21.4708 32.0667C21.1977 33.0396 19.8184 33.0396 19.5453 32.0667L19.0415 30.2724C17.9103 26.2429 14.7613 23.0939 10.7317 21.9626L8.93746 21.4589C7.96451 21.1857 7.96451 19.8065 8.93745 19.5333L10.7317 19.0296C14.7613 17.8983 17.9103 14.7493 19.0415 10.7198L19.5453 8.92549Z"></path> </mask> <path d="M19.5453 8.92549C19.8184 7.95255 21.1977 7.95255 21.4708 8.92549L21.9746 10.7198C23.1058 14.7493 26.2548 17.8983 30.2844 19.0296L32.0787 19.5333C33.0516 19.8065 33.0516 21.1857 32.0787 21.4589L30.2844 21.9626C26.2548 23.0939 23.1058 26.2429 21.9746 30.2724L21.4708 32.0667C21.1977 33.0396 19.8184 33.0396 19.5453 32.0667L19.0415 30.2724C17.9103 26.2429 14.7613 23.0939 10.7317 21.9626L8.93746 21.4589C7.96451 21.1857 7.96451 19.8065 8.93745 19.5333L10.7317 19.0296C14.7613 17.8983 17.9103 14.7493 19.0415 10.7198L19.5453 8.92549Z" stroke="#898989" stroke-width="4" mask="url(#path-1-inside-1_55_151)"></path> </svg>