<svg fill="none" xmlns="http://www.w3.org/2000/svg" viewBox="6.46 6.2 28.6 28.6"> <mask id="path-1-inside-1_55_154" fill="white"> <path d="M19.7939 8.92549C20.0671 7.95255 21.4463 7.95255 21.7195 8.92549L22.2232 10.7198C23.3545 14.7493 26.5035 17.8983 30.533 19.0296L32.3273 19.5333C33.3003 19.8065 33.3003 21.1857 32.3273 21.4589L30.533 21.9626C26.5035 23.0939 23.3545 26.2429 22.2232 30.2724L21.7195 32.0667C21.4463 33.0396 20.0671 33.0396 19.7939 32.0667L19.2902 30.2724C18.1589 26.2429 15.0099 23.0939 10.9804 21.9626L9.18611 21.4589C8.21317 21.1857 8.21317 19.8065 9.18611 19.5333L10.9804 19.0296C15.0099 17.8983 18.1589 14.7493 19.2902 10.7198L19.7939 8.92549Z"></path> </mask> <path d="M19.7939 8.92549C20.0671 7.95255 21.4463 7.95255 21.7195 8.92549L22.2232 10.7198C23.3545 14.7493 26.5035 17.8983 30.533 19.0296L32.3273 19.5333C33.3003 19.8065 33.3003 21.1857 32.3273 21.4589L30.533 21.9626C26.5035 23.0939 23.3545 26.2429 22.2232 30.2724L21.7195 32.0667C21.4463 33.0396 20.0671 33.0396 19.7939 32.0667L19.2902 30.2724C18.1589 26.2429 15.0099 23.0939 10.9804 21.9626L9.18611 21.4589C8.21317 21.1857 8.21317 19.8065 9.18611 19.5333L10.9804 19.0296C15.0099 17.8983 18.1589 14.7493 19.2902 10.7198L19.7939 8.92549Z" fill="#898989" stroke="#898989" stroke-width="4" mask="url(#path-1-inside-1_55_154)"></path> </svg>