<svg fill="none" xmlns="http://www.w3.org/2000/svg" viewBox="10.96 8.99 19.53 23.96"> <path d="M25.5013 13.2591C25.71 13.7026 26.2388 13.8929 26.6823 13.6842C27.1259 13.4755 27.3162 12.9467 27.1075 12.5032L25.5013 13.2591ZM14.5723 16.9817C15.4484 16.8395 15.4485 16.8399 15.4485 16.8403C15.4485 16.8404 15.4486 16.8407 15.4486 16.8409C15.4487 16.8413 15.4487 16.8415 15.4487 16.8417C15.4488 16.842 15.4488 16.8419 15.4487 16.8413C15.4485 16.8403 15.4481 16.8376 15.4475 16.8333C15.4463 16.8248 15.4442 16.81 15.4415 16.7892C15.4362 16.7477 15.4287 16.6829 15.4211 16.598C15.406 16.4279 15.3911 16.1798 15.3938 15.8802C15.3993 15.275 15.4764 14.4918 15.7458 13.7259C16.0128 12.9667 16.4602 12.2456 17.2002 11.7092C17.9379 11.1745 19.0418 10.7687 20.7189 10.7687V8.99353C18.7466 8.99353 17.2574 9.47532 16.1584 10.2719C15.0616 11.0669 14.4285 12.121 14.0712 13.1369C13.7163 14.1461 13.6253 15.1381 13.6187 15.8642C13.6154 16.2303 13.6335 16.5369 13.6529 16.7552C13.6626 16.8645 13.6727 16.9521 13.6807 17.0147C13.6847 17.0459 13.6882 17.071 13.6909 17.0893C13.6922 17.0985 13.6934 17.106 13.6943 17.1117C13.6947 17.1146 13.6951 17.1171 13.6954 17.1191C13.6956 17.1201 13.6957 17.121 13.6958 17.1218C13.6959 17.1222 13.696 17.1227 13.696 17.1229C13.6961 17.1234 13.6962 17.1239 14.5723 16.9817ZM20.7189 10.7687C22.2238 10.7687 23.2656 11.0956 23.9938 11.5458C24.7199 11.9947 25.192 12.6018 25.5013 13.2591L27.1075 12.5032C26.676 11.5864 25.9909 10.6935 24.9273 10.0359C23.8656 9.3796 22.4851 8.99353 20.7189 8.99353V10.7687Z" fill="#898989"></path> <path d="M26.9319 17.4254H14.5059C13.0353 17.4254 11.8432 18.6176 11.8432 20.0881V29.4077C11.8432 30.8782 13.0353 32.0704 14.5059 32.0704H26.9319C28.4025 32.0704 29.5947 30.8782 29.5947 29.4077V20.0881C29.5947 18.6176 28.4025 17.4254 26.9319 17.4254Z" stroke="#898989" stroke-width="1.77515"></path> <circle cx="20.7189" cy="24.9698" r="2.66272" stroke="#898989" stroke-width="1.77515"></circle> </svg>