<svg fill="none" xmlns="http://www.w3.org/2000/svg" viewBox="8.26 8.84 24.4 23.57"> <g clip-path="url(#clip0_24_424)"> <mask id="path-1-inside-1_24_424" fill="white"> <path d="M13.074 25.1458C9.35088 23.2843 9.35088 17.9712 13.074 16.1097L21.8065 11.7435C22.926 11.1837 24.2432 11.9978 24.2432 13.2495L24.2432 28.006C24.2432 29.2577 22.926 30.0718 21.8065 29.5121L13.074 25.1458Z"></path> </mask> <path d="M13.074 25.1458C9.35088 23.2843 9.35088 17.9712 13.074 16.1097L21.8065 11.7435C22.926 11.1837 24.2432 11.9978 24.2432 13.2495L24.2432 28.006C24.2432 29.2577 22.926 30.0718 21.8065 29.5121L13.074 25.1458Z" stroke="#898989" stroke-width="4.04108" mask="url(#path-1-inside-1_24_424)"></path> <path d="M27.6109 25.6797C28.3997 25.4645 29.1291 24.9872 29.7103 24.2918C30.5223 23.3202 30.9784 22.0024 30.9784 20.6283C30.9784 19.2543 30.5223 17.9365 29.7103 16.9649C29.1291 16.2694 28.3997 15.7921 27.6109 15.577" stroke="#898989" stroke-width="1.68378" stroke-linecap="round"></path> <path d="M26.769 20.1175C26.769 19.9349 26.9224 19.7811 27.0911 19.851C27.1933 19.8933 27.2861 19.9553 27.3643 20.0335C27.4424 20.1117 27.5045 20.2045 27.5468 20.3066C27.5891 20.4088 27.6108 20.5183 27.6108 20.6288C27.6108 20.7394 27.5891 20.8488 27.5468 20.951C27.5045 21.0531 27.4424 21.1459 27.3643 21.2241C27.2861 21.3023 27.1933 21.3643 27.0911 21.4066C26.9224 21.4765 26.769 21.3227 26.769 21.1401L26.769 20.6288L26.769 20.1175Z" fill="#898989" stroke="#898989" stroke-width="0.841892"></path> </g> <defs> <clipPath id="clip0_24_424"> <rect width="23.573" height="23.573" fill="white" transform="translate(9.08923 8.8418)"></rect> </clipPath> </defs> </svg>